<svg width="51" height="51" viewBox="0 0 51 51" fill="none" xmlns="http://www.w3.org/2000/svg">
<path d="M25.5 50.71C30.4445 50.71 35.278 49.2437 39.3892 46.4967C43.5005 43.7497 46.7048 39.8452 48.597 35.2771C50.4892 30.7089 50.9842 25.6822 50.0196 20.8327C49.055 15.9832 46.674 11.5286 43.1777 8.03231C39.6813 4.53599 35.2268 2.15497 30.3772 1.19034C25.5277 0.225711 20.5011 0.720789 15.9329 2.61298C11.3648 4.50517 7.46029 7.70948 4.71326 11.8207C1.96622 15.9319 0.5 20.7654 0.5 25.71C0.5 32.3404 3.13392 38.6992 7.82233 43.3876C12.5107 48.076 18.8696 50.71 25.5 50.71Z" fill="#2CB5E5"/>
<path d="M10.8996 25.4796C10.8996 25.4796 23.3896 20.3597 27.7296 18.5497C29.3896 17.8297 35.0196 15.5497 35.0196 15.5497C35.0196 15.5497 37.6296 14.5496 37.3996 16.9996C37.3296 17.9996 36.7596 21.5497 36.1796 25.3797C35.3096 30.7997 34.3796 36.7297 34.3796 36.7297C34.3796 36.7297 34.2296 38.3797 32.9996 38.6697C31.7696 38.9597 29.7496 37.6696 29.3896 37.3696C29.0296 37.0696 23.9596 33.9096 22.0896 32.3096C21.8972 32.1809 21.7409 32.0052 21.6355 31.7992C21.53 31.5932 21.4789 31.3637 21.4869 31.1324C21.4949 30.9011 21.5618 30.6757 21.6813 30.4774C21.8007 30.2792 21.9688 30.1148 22.1696 29.9996C24.7796 27.6196 27.8796 24.6596 29.7496 22.7896C30.6196 21.9096 31.4796 19.8897 27.8696 22.3497C22.7396 25.8897 17.6796 29.2096 17.6796 29.2096C17.1575 29.4438 16.5937 29.5707 16.0217 29.5827C15.4496 29.5947 14.881 29.4917 14.3496 29.2796C12.1796 28.6296 9.64957 27.7596 9.64957 27.7596C9.64957 27.7596 7.93957 26.6696 10.8996 25.5096V25.4796Z" fill="white"/>
</svg>
