<svg width="51" height="51" viewBox="0 0 51 51" fill="none" xmlns="http://www.w3.org/2000/svg">
<path d="M50.5 25.6899C50.5 30.6345 49.0338 35.468 46.2867 39.5792C43.5397 43.6904 39.6352 46.8947 35.0671 48.7869C30.4989 50.6791 25.4723 51.1742 20.6227 50.2096C15.7732 49.2449 11.3187 46.8639 7.82234 43.3676C4.32603 39.8713 1.94501 35.4167 0.980379 30.5672C0.0157489 25.7177 0.510832 20.691 2.40302 16.1229C4.29521 11.5547 7.49952 7.65023 11.6108 4.9032C15.722 2.15616 20.5555 0.689941 25.5 0.689941C32.1304 0.689941 38.4893 3.32386 43.1777 8.01227C47.8661 12.7007 50.5 19.0595 50.5 25.6899Z" fill="#4D76A3"/>
<path d="M39.9295 18.88C39.5295 18.54 37.9295 18.56 36.4195 18.56C35.2438 18.5137 34.0662 18.5672 32.8995 18.72C32.5595 18.86 31.8095 20.72 30.8195 22.56C29.7095 24.69 28.3295 26.73 27.4695 26.72C26.3395 26.72 26.5995 23.21 26.6695 20.64C26.6695 18.94 26.4395 18.41 26.1895 18.24C25.4756 17.8891 24.7241 17.6208 23.9495 17.44C23.9495 17.44 19.0495 17.08 18.3495 19.21C19.2795 19.33 20.8895 19.03 20.2695 25.6C20.2695 25.92 19.5195 28.6 17.2695 24.96C16.6995 24.06 14.5095 18.59 13.7495 18.56C11.2095 18.5 8.74951 18.39 7.83951 18.88C6.92951 19.37 8.92951 23.12 12.1495 28.16C14.7795 32.29 17.5695 35.51 22.3795 36.32C23.7122 36.4952 25.0651 36.4411 26.3795 36.16C26.8895 35.91 26.2695 32.34 27.9795 32C28.7495 31.85 31.6695 35.71 32.7795 36.16C33.9803 36.4676 35.2236 36.5757 36.4595 36.48C38.0995 36.43 39.9495 36.62 40.1295 35.48C40.5295 33.01 35.1295 29.81 35.0195 28.28C34.8995 27.19 37.0195 25.18 38.0195 23.65C39.3295 21.82 40.7495 19.58 39.9295 18.88Z" fill="white"/>
</svg>
